<svg xmlns="http://www.w3.org/2000/svg" viewBox="0 0 120 120">
  <defs>
    <radialGradient id="sg" cx="50%" cy="50%">
      <stop offset="0%" stop-color="#FFF9C4"/>
      <stop offset="100%" stop-color="#FFD700"/>
    </radialGradient>
    <filter id="glow2"><feGaussianBlur stdDeviation="3" result="b"/><feMerge><feMergeNode in="b"/><feMergeNode in="SourceGraphic"/></feMerge></filter>
  </defs>
  <!-- big star -->
  <polygon points="60,15 66,45 95,45 73,63 81,92 60,75 39,92 47,63 25,45 54,45" fill="url(#sg)" filter="url(#glow2)"/>
  <!-- small sparkles -->
  <polygon points="20,25 22,33 30,33 24,38 26,46 20,41 14,46 16,38 10,33 18,33" fill="#FFD700" opacity="0.7" transform="scale(0.7) translate(5,5)"/>
  <polygon points="100,70 102,78 110,78 104,83 106,91 100,86 94,91 96,83 90,78 98,78" fill="#FFD700" opacity="0.7" transform="scale(0.65) translate(56,18)"/>
  <circle cx="25" cy="88" r="4" fill="#FFF9C4" opacity="0.8"/>
  <circle cx="95" cy="25" r="3" fill="#FFF9C4" opacity="0.6"/>
</svg>
